<?xml version="1.0" encoding="utf-8"?>
<!-- Generator: Adobe Illustrator 18.1.0, SVG Export Plug-In . SVG Version: 6.00 Build 0)  -->
<!DOCTYPE svg PUBLIC "-//W3C//DTD SVG 1.1//EN" "http://www.w3.org/Graphics/SVG/1.1/DTD/svg11.dtd">
<svg version="1.1" id="All_glyphs" xmlns="http://www.w3.org/2000/svg" xmlns:xlink="http://www.w3.org/1999/xlink" x="0px" y="0px"
	 viewBox="0 0 541.6 78" enable-background="new 0 0 541.6 78" xml:space="preserve">
<g>
	<g>
		<path fill="#33CD99" d="M14.2,33L33,14.2L18.8,0.1c0,0-5.4-1.1-12.6,6.1C-1,13.4,0.1,18.8,0.1,18.8L14.2,33z"/>
		<path fill="#33CD99" d="M39,57.8l13.7-13.7l5.1-5.1l0,0l0,0l20.2-20.2c0,0,1.1-5.4-6.1-12.6C64.6-1,59.2,0.1,59.2,0.1L33.9,25.3
			L5,54.2L0,78l23.8-5.1L39,57.8L39,57.8L39,57.8z M22.4,70.1l-8.1,1.7c-0.8-1.5-1.7-2.9-3.5-4.7c-1.7-1.7-3.2-2.7-4.7-3.5l1.8-8.1
			l2.3-2.3c0,0,4.4,0.1,9.4,5.1c5,5,5.1,9.4,5.1,9.4L22.4,70.1z"/>
		<path fill="#33CD99" d="M72.9,54.2l-9.5-9.5L44.7,63.5l9.5,9.5L78,78L72.9,54.2z M67.2,67.2c-1.7,1.7-2.7,3.2-3.5,4.7l-8.1-1.8
			l-2.3-2.3c0,0,0.1-4.4,5.1-9.4c5-5,9.4-5.1,9.4-5.1l2.3,2.3l1.7,8.1C70.4,64.5,68.9,65.4,67.2,67.2z"/>
	</g>
	<g>
		<path fill="#FFFFFF" d="M124.9,11.4c0-0.8,0.7-1.5,1.5-1.5h2L162,45.6h0.1V12.3c0-0.8,0.6-1.5,1.5-1.5h7.4c0.8,0,1.5,0.7,1.5,1.5
			v54.2c0,0.8-0.7,1.5-1.5,1.5h-1.9l-33.7-37h-0.1v34.7c0,0.8-0.6,1.5-1.5,1.5h-7.3c-0.8,0-1.5-0.7-1.5-1.5V11.4z"/>
		<path fill="#FFFFFF" d="M212.2,10c16.1,0,29,13,29,29.1c0,16.1-12.9,28.9-29,28.9c-16.1,0-28.9-12.8-28.9-28.9
			C183.2,23,196,10,212.2,10z M212.2,57.5c10.2,0,18.5-8.3,18.5-18.5s-8.4-18.6-18.5-18.6c-10.2,0-18.5,8.5-18.5,18.6
			S202,57.5,212.2,57.5z"/>
		<path fill="#FFFFFF" d="M258.8,20.5h-12.3c-0.9,0-1.5-0.7-1.5-1.5v-6.6c0-0.8,0.6-1.5,1.5-1.5h35.2c0.9,0,1.5,0.7,1.5,1.5v6.6
			c0,0.8-0.6,1.5-1.5,1.5h-12.3v45.2c0,0.8-0.7,1.5-1.5,1.5h-7.5c-0.8,0-1.5-0.7-1.5-1.5V20.5z"/>
		<path fill="#FFFFFF" d="M291.6,12.3c0-0.8,0.6-1.5,1.5-1.5h32.8c0.9,0,1.5,0.7,1.5,1.5v6.6c0,0.8-0.6,1.5-1.5,1.5h-23.9v13.2H322
			c0.8,0,1.5,0.7,1.5,1.5v6.7c0,0.9-0.7,1.5-1.5,1.5h-19.9v14.1h23.9c0.9,0,1.5,0.7,1.5,1.5v6.6c0,0.8-0.6,1.5-1.5,1.5h-32.8
			c-0.9,0-1.5-0.7-1.5-1.5V12.3z"/>
		<path fill="#FFFFFF" d="M339,11.4c0-0.8,0.7-1.5,1.5-1.5h2l33.5,35.6h0.1V12.3c0-0.8,0.6-1.5,1.5-1.5h7.4c0.8,0,1.5,0.7,1.5,1.5
			v54.2c0,0.8-0.7,1.5-1.5,1.5h-1.9l-33.7-37h-0.1v34.7c0,0.8-0.6,1.5-1.5,1.5h-7.3c-0.8,0-1.5-0.7-1.5-1.5V11.4z"/>
		<path fill="#FFFFFF" d="M426.3,10c16.1,0,29,13,29,29.1c0,16.1-12.9,28.9-29,28.9c-16.1,0-28.9-12.8-28.9-28.9
			C397.3,23,410.2,10,426.3,10z M426.3,57.5c10.2,0,18.5-8.3,18.5-18.5s-8.4-18.6-18.5-18.6c-10.2,0-18.5,8.5-18.5,18.6
			S416.1,57.5,426.3,57.5z"/>
		<path fill="#FFFFFF" d="M472.9,20.5h-12.3c-0.9,0-1.5-0.7-1.5-1.5v-6.6c0-0.8,0.6-1.5,1.5-1.5h35.2c0.9,0,1.5,0.7,1.5,1.5v6.6
			c0,0.8-0.6,1.5-1.5,1.5h-12.3v45.2c0,0.8-0.7,1.5-1.5,1.5h-7.5c-0.8,0-1.5-0.7-1.5-1.5V20.5z"/>
		<path fill="#FFFFFF" d="M505.7,12.3c0-0.8,0.6-1.5,1.5-1.5h32.8c0.9,0,1.5,0.7,1.5,1.5v6.6c0,0.8-0.6,1.5-1.5,1.5h-23.9v13.2h19.9
			c0.8,0,1.5,0.7,1.5,1.5v6.7c0,0.9-0.7,1.5-1.5,1.5h-19.9v14.1h23.9c0.9,0,1.5,0.7,1.5,1.5v6.6c0,0.8-0.6,1.5-1.5,1.5h-32.8
			c-0.9,0-1.5-0.7-1.5-1.5V12.3z"/>
	</g>
</g>
</svg>
